<?xml version="1.0" encoding="UTF-8" standalone="no"?>
<!-- Created with Inkscape (http://www.inkscape.org/) -->

<svg
   width="25mm"
   height="12mm"
   viewBox="0 0 1122.5196 793.70081"
   version="1.1"
   id="svg1"
   xmlns="http://www.w3.org/2000/svg"
   xmlns:svg="http://www.w3.org/2000/svg">
  <defs
     id="defs1">
    <filter
       style="color-interpolation-filters:sRGB"
       id="filter219"
       x="0"
       y="0"
       width="1"
       height="1">
      <feColorMatrix
         type="hueRotate"
         values="0"
         id="feColorMatrix217" />
      <feColorMatrix
         type="saturate"
         values="1"
         id="feColorMatrix218" />
      <feColorMatrix
         type="matrix"
         values="2 -1 0 0 0 0 2 -1 0 0 -1 0 2 0 0 0 0 0 1 0 "
         id="feColorMatrix219" />
    </filter>
  </defs>
  <g
     id="layer1"
     style="display:inline">
    <path
       id="path35"
       style="fill:#5a4a30;fill-opacity:1;filter:url(#filter219)"
       d="m 856.15432,117.5918 c -21.02046,1.79168 -29.40811,1.41399 -50.20704,7.96289 -18.83584,5.9308 -31.76228,9.98089 -40.78711,27.5625 -4.54475,-1.10067 -9.33808,-2.22381 -14.85742,-3.43359 -8.03667,-1.76156 -15.32609,6.12003 -22.49219,10.16211 -21.18133,11.94744 -40.84447,27.63687 -58.76367,43.88867 -10.78684,9.78312 -20.74873,20.43867 -31.12305,30.6582 -20.34283,23.33213 -38.3471,42.20988 -55.09765,68.37891 -20.44535,31.94133 -38.3945,73.79152 -46.32618,110.99414 -2.46736,11.57292 -3.24735,23.44104 -4.87109,35.16211 -0.17105,11.07827 -1.25856,22.1818 -0.51367,33.23633 0.73582,10.91971 2.76727,21.73224 4.93945,32.45899 5.92741,29.271 16.80579,57.74792 35.14258,81.65625 6.60354,8.60999 14.66831,15.99493 22.00195,23.99219 8.60065,7.08281 16.79564,14.68717 25.80078,21.24805 8.76349,6.38479 17.93721,12.24085 27.40821,17.51953 39.44689,21.98582 77.44579,48.43453 122.29492,57.56836 25.99568,5.29419 42.41724,3.65995 68.75196,3.32617 25.27691,-3.23618 43.97959,-4.175 68.1543,-13.05859 31.76056,-11.6712 65.64858,-35.48067 89.98828,-58.73047 8.54772,-8.16503 16.00552,-17.40121 24.00782,-26.10157 6.6764,-9.24516 14.0899,-17.99935 20.0293,-27.73437 16.8379,-27.59835 29.4581,-61.80982 34.8066,-93.67774 4.7539,-28.32561 3.1913,-37.11179 2.5977,-65.96094 -2.8845,-45.27348 -13.5932,-89.43261 -28.334,-132.20899 -6.8291,-19.81733 -14.3713,-37.83552 -22.1914,-57.20117 -4.5035,-9.6578 -13.7386,-30.82745 -20.3496,-40.23828 -7.75988,-11.04622 -18.88139,-21.52795 -30.54494,-28.34766 -96.14798,-56.21802 -63.1935,-46.9605 -119.46484,-59.08203 z m -495.83791,5.04883 c -15.89885,0.59033 -23.1824,-0.36049 -38.51953,5.23633 -19.23681,7.01987 -34.74776,21.42019 -46.26953,38.02148 -4.11859,5.93433 -7.22681,12.50869 -10.83984,18.76367 -7.91784,19.33672 -10.28431,23.12122 -15.3418,43.71485 -0.52337,2.13112 -0.94975,4.28044 -1.42774,6.41992 -4.27802,-7.50763 -8.85076,-14.84078 -13.69336,-21.79102 -4.62414,-6.63671 -8.45472,-14.27311 -14.9121,-19.14453 -47.56246,-35.88088 -57.3094,-40.18891 -94.30665,-59.26562 -5.41424,-1.1913 -10.70663,-3.311 -16.24414,-3.57422 -4.63504,-0.22031 -9.327395,0.75625 -13.753905,2.14844 -23.51226,7.39491 -30.60073,29.36816 -38.039064,50.36132 -6.320559,20.53111 -12.434827,41.07905 -16.214844,62.26954 -1.403678,7.86892 -3.128496,19.92858 -2.751953,28.5625 0.09515,2.18182 0.742294,4.30487 1.113281,6.45703 l 57.273439,26.69727 c -0.932765,-5.34988 -1.894165,-10.0467 -1.851562,-15.69532 0.149253,-19.78958 3.721042,-40.47364 9.337888,-59.39844 1.93889,-6.53266 4.63696,-12.81668 6.95508,-19.22461 7.9179,-15.50528 15.69928,-28.37947 32.4336,-35.32617 4.1556,-1.72506 8.5869,-2.95331 13.06445,-3.39648 0.45714,-0.0453 0.73909,0.003 1.17383,-0.0312 4.41254,3.77215 9.76028,8.09783 12.10351,11.11523 10.20605,13.14244 21.39847,31.80471 28.13086,46.94727 4.08479,9.18753 6.99862,18.85325 10.49805,28.2793 11.42008,33.62649 17.77795,68.34637 21.60938,103.43359 -0.14927,1.69156 -0.34057,3.37955 -0.47657,5.07227 -1.73255,21.56501 -2.85843,43.17319 -4.38281,64.75391 -1.57901,22.35418 -3.61863,44.67654 -5.01367,67.04297 -0.66978,10.73856 -1.0312,21.49511 -1.54688,32.24218 -0.63868,10.38375 -1.16986,20.77382 -1.91601,31.1504 -0.89355,12.42651 -3.48705,39.78983 -4.26953,52.98632 -0.35489,5.98511 -0.38179,11.98573 -0.6211,17.97657 -0.16633,4.16374 -3.79605,9.8176 -0.5957,12.48633 24.6841,20.5838 53.3605,35.84111 80.04102,53.76172 1.54817,-1.78503 3.50953,-3.2811 4.64453,-5.35352 0.80604,-1.47176 2.60131,-13.47722 2.62305,-13.63281 1.92786,-13.79444 2.65308,-27.70728 3.77148,-41.58008 2.81555,-50.35662 1.98705,-100.88755 -1.16992,-151.2129 -0.82624,-15.53527 -2.64121,-52.12455 -3.99024,-67.43554 -0.61223,-6.94859 -1.46907,-13.87214 -2.2539,-20.80274 1.1129,-9.44309 2.20899,-18.88706 3.33008,-28.33203 1.13994,-10.09785 1.99066,-20.23199 3.41992,-30.29297 1.76452,-12.42102 7.40236,-42.17198 10.17187,-54.88672 3.32359,-15.25846 6.97421,-30.54009 12.63282,-45.14453 2.62076,-6.76401 6.04031,-13.19179 9.06054,-19.78711 13.24977,-23.2339 29.07703,-42.96427 55.75977,-50.8086 15.12724,-4.44718 19.90755,-3.26641 33.95117,-2.27539 1.63969,1.44545 3.38993,2.94292 4.33203,4.06836 13.8126,16.50054 17.68043,26.54952 27.61329,45.63477 10.30365,30.18153 10.29522,26.71685 16.32812,58.33984 1.81038,9.48955 1.9892,19.30654 4.54492,28.62305 2.78252,10.14328 7.58735,19.6196 11.38086,29.42969 l 52.23438,25.99805 c 2.20043,-6.99619 6.26866,-13.66374 6.60156,-20.99024 0.44458,-9.78453 -2.56037,-19.42872 -4.32812,-29.0625 -5.38756,-29.36068 -6.93924,-31.72195 -15.44922,-60.00391 -10.32684,-22.4616 -11.2184,-27.40579 -25.74024,-47.29297 -27.80768,-38.08171 -49.19932,-40.9259 -102.54102,-71.54297 -5.92519,-3.40094 -12.42652,-5.82148 -18.99804,-7.68945 -6.066,-1.72428 -12.45029,-2.0132 -18.67579,-3.01953 z m 530.26955,20.58984 c -3.9845,-2.42962 3.00517,1.59951 9.58594,5.73633 -3.24732,-1.94681 -6.04414,-3.57665 -9.58594,-5.73633 z m -130.28711,12.6836 c -0.54743,-0.31659 2.40151,1.14995 2.83593,1.34765 -0.0335,0.0805 -0.0454,0.16733 -0.0781,0.24805 -0.63711,-0.35978 -2.42418,-1.40276 -2.75781,-1.5957 z m 143.5625,16.25976 c 5.72713,-0.0349 12.00843,0.67758 23.15625,1.49024 8.78227,11.31372 15.9149,23.98471 22.76758,36.49218 4.49684,9.13673 9.29605,18.13062 13.49023,27.41016 23.46086,51.90664 39.00739,106.16007 45.79299,162.74415 0.4856,11.03345 1.71,22.06032 1.457,33.10156 -0.9611,41.96117 -13.21657,87.2312 -34.4453,123.44531 -5.59974,9.55263 -12.49328,18.28524 -18.74023,27.42774 -19.73146,21.87194 -25.78993,30.79397 -49.8125,48.45117 -27.77907,20.41834 -60.0107,34.67374 -93.81055,41.4961 -10.95004,2.21022 -22.15676,2.8819 -33.23438,4.32226 -30.68625,-0.29693 -38.06184,1.26073 -68.23633,-5.56445 -7.64888,-1.73011 -19.77677,-11.66785 -26.21094,-12.55664 v -0.36719 c -0.1956,0.10866 -0.40252,0.16233 -0.61523,0.19727 -2.30956,-2.60723 -4.99167,-5.03166 -5.51758,-5.46094 -0.64327,-0.52507 -1.28695,-1.05184 -1.94922,-1.55273 -0.76945,-0.58197 -1.5507,-1.14876 -2.3457,-1.69532 -1.48632,-1.02185 -5.2856,-3.46154 -6.64063,-4.22265 -1.76204,-0.98972 -12.79445,-6.46025 -14.2539,-6.53125 -1.56407,-0.0761 -3.09863,0.43665 -4.64454,0.70703 -15.96391,-15.99636 -22.85793,-21.7472 -35.85351,-43.63868 -15.89596,-26.77726 -25.64677,-57.79457 -29.54297,-88.57812 -1.41237,-11.15897 -1.40752,-22.45178 -2.11133,-33.67774 2.82023,-31.42336 2.1272,-41.01687 11.41602,-71.89648 11.96584,-39.7791 32.75492,-76.82802 58.48633,-109.31251 9.12361,-11.51804 19.57314,-21.92023 29.35937,-32.88086 11.0039,-9.59874 21.42,-19.91692 33.01172,-28.79687 21.3603,-16.36328 40.84991,-28.01262 66.09571,-36.85742 8.22595,-2.88195 29.39577,1.82728 25.46289,-5.95118 -0.31129,-0.61566 -0.83036,-1.28019 -1.28516,-1.92968 12.33055,-0.63891 24.07485,-1.88547 43.08008,-5.2793 9.90036,-1.76794 19.45335,-5.19124 29.33984,-7.03516 13.71459,-2.55789 20.06409,-3.46182 26.33399,-3.5 z M 728.64064,296.7754 a 42.190132,42.190132 0 0 0 -42.18945,42.1914 42.190132,42.190132 0 0 0 42.18945,42.18946 42.190132,42.190132 0 0 0 42.19141,-42.18946 42.190132,42.190132 0 0 0 -42.19141,-42.1914 z m 177.58204,3.44336 a 42.190132,42.190132 0 0 0 -42.18946,42.18945 42.190132,42.190132 0 0 0 42.18946,42.18946 42.190132,42.190132 0 0 0 42.18945,-42.18946 42.190132,42.190132 0 0 0 -42.18945,-42.18945 z m -257.88087,123.7168 c -1.10176,5.43573 -1.8774,8.48748 -2.0957,14.58789 -0.14748,4.12115 0.29511,8.24343 0.27734,12.36719 -0.018,4.17466 -0.44357,8.34332 -0.38281,12.51757 0.174,11.95475 0.90343,13.59653 2.86523,25.41211 4.30649,13.73809 9.5073,28.8174 19.26758,39.81446 2.01533,2.27071 4.1144,4.58548 6.70899,6.16211 20.9131,12.708 42.43112,24.39312 63.64648,36.58984 3.33995,0.96647 6.59426,2.30311 10.01954,2.90039 8.4007,1.46488 17.67881,-0.34299 24.95117,-4.77734 3.87636,-2.36363 6.1593,-4.74297 8.625,-7.58789 15.97919,9.67321 54.31491,43.59454 85.25977,41.92383 3.27389,-0.17676 6.46848,-1.06997 9.70312,-1.60547 7.73684,-3.20897 11.30213,-4.11297 18.10547,-9.33008 13.25884,-10.16748 21.15465,-24.91103 29.43945,-39.00977 4.72022,-12.7386 4.69275,-11.32978 7.64063,-24.59179 1.75094,-7.87724 4.31174,-17.45907 0.93359,-25.50977 -2.60133,-6.19941 -7.46897,-11.1808 -11.20312,-16.77148 l -44.38868,-22.61719 c -3.7341,1.53836 -8.34089,1.76216 -11.20117,4.61328 -2.49653,2.48855 -2.6309,6.56882 -3.45508,9.99609 -0.9309,3.87103 -0.99768,7.90666 -1.78906,11.8086 -1.80221,8.88594 -3.93621,14.7001 -6.70508,23.30664 -1.34964,3.69106 -2.3635,7.52189 -4.04882,11.07226 -5.62842,11.85699 -15.25946,23.62321 -27.81251,28.49219 -3.67974,-6.77939 -6.81757,-13.82895 -8.91796,-21.34375 -0.74169,-1.9126 -1.89073,-4.57535 -2.33985,-6.67969 -0.11821,-0.55386 0.0117,-2.86749 -0.75781,-3.35742 -76.64841,-48.79779 -59.36369,-71.43068 -79.14258,-39.69141 -0.0296,0.39455 1.43745,3.11937 2.1543,5.18555 -1.07202,-0.65975 -2.09606,-1.3075 -3.20704,-1.97656 -0.3684,-0.22187 0.33096,0.79798 0.55665,1.16406 1.09679,1.77909 1.9452,3.22602 2.73632,4.71485 -0.0651,2.02866 -0.15853,4.68301 -0.36328,5.87695 -1.41761,8.2665 -5.51635,15.98627 -9.9414,22.97461 -4.77401,5.37177 -8.56795,9.57673 -15.8379,11.60742 -0.14084,0.0393 -0.28112,0.0536 -0.42187,0.0898 -3.6291,-6.07552 -6.46675,-12.60872 -8.5625,-19.45312 -1.10461,-4.19201 -2.50595,-8.31677 -3.3125,-12.57617 -0.82627,-4.36361 -2.31891,-20.97044 -2.23828,-25.3711 0.0687,-3.74918 0.82451,-7.45518 1.22461,-11.18359 1.11655,-10.40474 0.0704,-5.84627 2.18164,-13.09375 z" />
  </g>
</svg>
